<svg width="170" height="171" viewBox="0 0 170 171" fill="none" xmlns="http://www.w3.org/2000/svg">
<path d="M111.594 43.5034C115.791 39.3062 122.596 39.3062 126.793 43.5034C130.99 47.7005 130.99 54.5055 126.793 58.7027L63.2321 122.264C59.0349 126.461 52.2299 126.461 48.0327 122.264C43.8355 118.066 43.8355 111.261 48.0327 107.064L111.594 43.5034Z" fill="black"/>
<path d="M116.208 96.3761C114.509 99.997 115.155 104.445 118.147 107.437L151.309 140.599C155.125 144.415 161.311 144.415 165.127 140.599C168.942 136.783 168.942 130.597 165.127 126.781L138.717 100.372L155.691 83.3981C174.77 64.32 174.77 33.3883 155.691 14.3101C136.613 -4.76798 105.685 -4.77108 86.6065 14.307L63.1136 37.8C59.2979 41.6156 59.2979 47.802 63.1135 51.6176C66.9292 55.4332 73.1155 55.4332 76.9311 51.6176L100.424 28.1246C111.869 16.6794 130.425 16.6792 141.874 28.1277C153.321 39.5746 153.321 58.1337 141.874 69.5805L118.384 93.0704C117.41 94.0442 116.685 95.1723 116.208 96.3761Z" fill="black"/>
<path d="M31.0488 70.8617L14.3086 87.6019C-4.76953 106.68 -4.76953 137.612 14.3086 156.69C33.3867 175.768 64.3154 175.771 83.3935 156.693L106.886 133.2C110.702 129.384 110.702 123.198 106.886 119.382C103.071 115.567 96.8845 115.567 93.0689 119.382L69.5759 142.875C58.1306 154.321 39.5747 154.321 28.1262 142.872C16.6793 131.425 16.6793 112.866 28.1262 101.42L50.7341 78.8116C51.125 78.5234 51.4993 78.2023 51.8532 77.8484C55.6688 74.0328 55.6688 67.8464 51.8532 64.0308L18.6909 30.8686C14.8753 27.053 8.68897 27.053 4.87334 30.8686C1.05772 34.6842 1.0577 40.8705 4.87334 44.6862L31.0488 70.8617Z" fill="black"/>
</svg>
