<svg width="221" height="52" viewBox="0 0 221 52" fill="none" xmlns="http://www.w3.org/2000/svg">
<path d="M100.974 28.12C100.707 30.5733 99.8408 32.7467 98.3741 34.64C96.9341 36.5067 95.0408 37.96 92.6941 39C90.3475 40.04 87.6675 40.56 84.6541 40.56C81.2941 40.56 78.3475 39.9067 75.8141 38.6C73.2808 37.2933 71.3075 35.48 69.8941 33.16C68.4808 30.8133 67.7741 28.0933 67.7741 25C67.7741 21.9067 68.4808 19.2 69.8941 16.88C71.3075 14.5333 73.2808 12.7067 75.8141 11.4C78.3475 10.0933 81.2941 9.44 84.6541 9.44C87.6675 9.44 90.3475 9.96 92.6941 11C95.0408 12.04 96.9341 13.4933 98.3741 15.36C99.8408 17.2267 100.707 19.4 100.974 21.88H95.6541C95.3608 20.28 94.7208 18.9067 93.7341 17.76C92.7741 16.6133 91.5208 15.7333 89.9741 15.12C88.4275 14.48 86.6408 14.16 84.6141 14.16C82.2675 14.16 80.2275 14.6 78.4941 15.48C76.7875 16.36 75.4675 17.6133 74.5341 19.24C73.6008 20.8667 73.1341 22.7867 73.1341 25C73.1341 27.2133 73.6008 29.1333 74.5341 30.76C75.4675 32.3867 76.7875 33.64 78.4941 34.52C80.2275 35.4 82.2675 35.84 84.6141 35.84C86.6408 35.84 88.4275 35.5333 89.9741 34.92C91.5208 34.3067 92.7741 33.4267 93.7341 32.28C94.7208 31.1067 95.3608 29.72 95.6541 28.12H100.974ZM117.578 40.56C114.938 40.56 112.592 40.0667 110.538 39.08C108.485 38.0667 106.872 36.6667 105.698 34.88C104.525 33.0933 103.938 31.0133 103.938 28.64C103.938 26.2933 104.485 24.24 105.578 22.48C106.698 20.6933 108.232 19.3067 110.178 18.32C112.152 17.3067 114.405 16.8 116.938 16.8C119.472 16.8 121.658 17.3733 123.498 18.52C125.365 19.64 126.805 21.2267 127.818 23.28C128.832 25.3333 129.338 27.7467 129.338 30.52H108.018V26.56H126.738L124.138 28.04C124.058 26.5467 123.698 25.2667 123.058 24.2C122.445 23.1333 121.605 22.32 120.538 21.76C119.498 21.1733 118.258 20.88 116.818 20.88C115.298 20.88 113.965 21.1867 112.818 21.8C111.698 22.4133 110.818 23.28 110.178 24.4C109.538 25.4933 109.218 26.8 109.218 28.32C109.218 30 109.592 31.4533 110.338 32.68C111.112 33.9067 112.192 34.8533 113.578 35.52C114.992 36.16 116.658 36.48 118.578 36.48C120.312 36.48 122.085 36.2133 123.898 35.68C125.712 35.12 127.312 34.3467 128.698 33.36V37.12C127.312 38.1867 125.618 39.0267 123.618 39.64C121.645 40.2533 119.632 40.56 117.578 40.56ZM133.617 9.2H138.817V40H133.617V9.2ZM144.32 9.2H149.52V40H144.32V9.2ZM155.023 17.2L157.623 17.68L160.223 17.2V40H155.023V17.2ZM157.623 14.36C156.637 14.36 155.823 14.0933 155.183 13.56C154.543 13 154.223 12.28 154.223 11.4C154.223 10.52 154.543 9.81333 155.183 9.28C155.823 8.72 156.637 8.44 157.623 8.44C158.637 8.44 159.45 8.72 160.063 9.28C160.703 9.81333 161.023 10.52 161.023 11.4C161.023 12.28 160.703 13 160.063 13.56C159.45 14.0933 158.637 14.36 157.623 14.36ZM164.646 17.36H169.846L171.206 25.52V40H166.006V24.76L164.646 17.36ZM180.206 16.8C182.34 16.8 184.153 17.2267 185.646 18.08C187.14 18.9333 188.273 20.16 189.046 21.76C189.846 23.3333 190.246 25.24 190.246 27.48V40H185.046V28.32C185.046 25.9467 184.486 24.16 183.366 22.96C182.273 21.7333 180.66 21.12 178.526 21.12C177.06 21.12 175.766 21.4533 174.646 22.12C173.553 22.76 172.7 23.6667 172.086 24.84C171.5 26.0133 171.206 27.3867 171.206 28.96L169.366 27.96C169.606 25.6133 170.22 23.6133 171.206 21.96C172.193 20.3067 173.46 19.04 175.006 18.16C176.553 17.2533 178.286 16.8 180.206 16.8ZM200.653 35.48L199.133 34.92L213.533 17.36H219.533L200.293 40H195.453V9.2H200.653V35.48ZM207.093 28.8L210.733 25.52L220.213 40H214.093L207.093 28.8Z" fill="black"/>
<path d="M32.9785 13.9145C34.2188 12.6741 36.2299 12.6741 37.4702 13.9145C38.7106 15.1548 38.7106 17.1659 37.4702 18.4062L18.6865 37.1899C17.4462 38.4303 15.4352 38.4303 14.1948 37.1899C12.9544 35.9495 12.9544 33.9385 14.1948 32.6982L32.9785 13.9145Z" fill="#3F5DFF"/>
<path d="M34.34 29.5449C33.841 30.6139 34.0328 31.9257 34.9154 32.8082L44.7155 42.6084C45.8431 43.736 47.6713 43.736 48.7989 42.6084C49.9265 41.4808 49.9265 39.6526 48.7989 38.525L40.9942 30.7203L46.0103 25.7042C51.6483 20.0662 51.6483 10.9252 46.0103 5.28719C40.3722 -0.350817 31.2321 -0.351732 25.5941 5.28628L18.6514 12.229C17.5238 13.3566 17.5238 15.1848 18.6514 16.3124C19.779 17.44 21.6072 17.44 22.7348 16.3124L29.6775 9.36968C33.0599 5.98736 38.5436 5.98732 41.9268 9.3706C45.3097 12.7534 45.3097 18.238 41.9268 21.6208L34.9851 28.5626C34.6959 28.8518 34.4808 29.1871 34.34 29.5449Z" fill="#3F5DFF"/>
<path d="M14.9932 24.3487C15.1087 24.2636 15.2192 24.1688 15.3237 24.0643C16.4513 22.9367 16.4513 21.1085 15.3237 19.9809L5.5235 10.1807C4.3959 9.05308 2.56769 9.05308 1.44009 10.1807C0.312489 11.3083 0.312489 13.1365 1.44009 14.2641L9.17557 21.9996L4.2285 26.9466C-1.4095 32.5846 -1.4095 41.7257 4.22851 47.3637C9.86651 53.0017 19.0066 53.0026 24.6446 47.3646L31.5873 40.4219C32.7149 39.2943 32.7149 37.4661 31.5873 36.3385C30.4597 35.2109 28.6315 35.2109 27.5039 36.3385L20.5612 43.2812C17.1789 46.6635 11.6952 46.6635 8.31191 43.2803C4.92911 39.8975 4.92911 34.4128 8.31191 31.03L14.9932 24.3487Z" fill="#3F5DFF"/>
</svg>
