<svg width="242" height="58" viewBox="0 0 242 58" fill="none" xmlns="http://www.w3.org/2000/svg">
<path d="M103.304 32.338C102.997 35.1593 102 37.6587 100.314 39.836C98.6577 41.9827 96.4804 43.654 93.7817 44.85C91.083 46.046 88.001 46.644 84.5357 46.644C80.6717 46.644 77.283 45.8927 74.3697 44.39C71.4564 42.8873 69.187 40.802 67.5617 38.134C65.9364 35.4353 65.1237 32.3073 65.1237 28.75C65.1237 25.1927 65.9364 22.08 67.5617 19.412C69.187 16.7133 71.4564 14.6127 74.3697 13.11C77.283 11.6073 80.6717 10.856 84.5357 10.856C88.001 10.856 91.083 11.454 93.7817 12.65C96.4804 13.846 98.6577 15.5173 100.314 17.664C102 19.8107 102.997 22.31 103.304 25.162H97.1857C96.8484 23.322 96.1124 21.7427 94.9777 20.424C93.8737 19.1053 92.4324 18.0933 90.6537 17.388C88.875 16.652 86.8204 16.284 84.4897 16.284C81.791 16.284 79.445 16.79 77.4517 17.802C75.489 18.814 73.971 20.2553 72.8977 22.126C71.8244 23.9967 71.2877 26.2047 71.2877 28.75C71.2877 31.2953 71.8244 33.5033 72.8977 35.374C73.971 37.2447 75.489 38.686 77.4517 39.698C79.445 40.71 81.791 41.216 84.4897 41.216C86.8204 41.216 88.875 40.8633 90.6537 40.158C92.4324 39.4527 93.8737 38.4407 94.9777 37.122C96.1124 35.7727 96.8484 34.178 97.1857 32.338H103.304ZM122.399 46.644C119.363 46.644 116.664 46.0767 114.303 44.942C111.941 43.7767 110.086 42.1667 108.737 40.112C107.387 38.0573 106.713 35.6653 106.713 32.936C106.713 30.2373 107.341 27.876 108.599 25.852C109.887 23.7973 111.65 22.2027 113.889 21.068C116.158 19.9027 118.749 19.32 121.663 19.32C124.576 19.32 127.091 19.9793 129.207 21.298C131.353 22.586 133.009 24.4107 134.175 26.772C135.34 29.1333 135.923 31.9087 135.923 35.098H111.405V30.544H132.933L129.943 32.246C129.851 30.5287 129.437 29.0567 128.701 27.83C127.995 26.6033 127.029 25.668 125.803 25.024C124.607 24.3493 123.181 24.012 121.525 24.012C119.777 24.012 118.243 24.3647 116.925 25.07C115.637 25.7753 114.625 26.772 113.889 28.06C113.153 29.3173 112.785 30.82 112.785 32.568C112.785 34.5 113.214 36.1713 114.073 37.582C114.962 38.9927 116.204 40.0813 117.799 40.848C119.424 41.584 121.341 41.952 123.549 41.952C125.542 41.952 127.581 41.6453 129.667 41.032C131.752 40.388 133.592 39.4987 135.187 38.364V42.688C133.592 43.9147 131.645 44.8807 129.345 45.586C127.075 46.2913 124.76 46.644 122.399 46.644ZM140.843 10.58H146.823V46H140.843V10.58ZM153.152 10.58H159.132V46H153.152V10.58ZM165.46 19.78L168.45 20.332L171.44 19.78V46H165.46V19.78ZM168.45 16.514C167.315 16.514 166.38 16.2073 165.644 15.594C164.908 14.95 164.54 14.122 164.54 13.11C164.54 12.098 164.908 11.2853 165.644 10.672C166.38 10.028 167.315 9.706 168.45 9.706C169.615 9.706 170.551 10.028 171.256 10.672C171.992 11.2853 172.36 12.098 172.36 13.11C172.36 14.122 171.992 14.95 171.256 15.594C170.551 16.2073 169.615 16.514 168.45 16.514ZM176.527 19.964H182.507L184.071 29.348V46H178.091V28.474L176.527 19.964ZM194.421 19.32C196.874 19.32 198.959 19.8107 200.677 20.792C202.394 21.7733 203.697 23.184 204.587 25.024C205.507 26.8333 205.967 29.026 205.967 31.602V46H199.987V32.568C199.987 29.8387 199.343 27.784 198.055 26.404C196.797 24.9933 194.942 24.288 192.489 24.288C190.802 24.288 189.315 24.6713 188.027 25.438C186.769 26.174 185.788 27.2167 185.083 28.566C184.408 29.9153 184.071 31.4947 184.071 33.304L181.955 32.154C182.231 29.4553 182.936 27.1553 184.071 25.254C185.205 23.3527 186.662 21.896 188.441 20.884C190.219 19.8413 192.213 19.32 194.421 19.32ZM217.934 40.802L216.186 40.158L232.746 19.964H239.646L217.52 46H211.954V10.58H217.934V40.802ZM225.34 33.12L229.526 29.348L240.428 46H233.39L225.34 33.12Z" fill="white"/>
<path d="M32.8217 19.7951C34.0562 18.5607 36.0577 18.5607 37.2921 19.7951C38.5266 21.0296 38.5266 23.0311 37.2921 24.2655L18.5977 42.96C17.3633 44.1944 15.3618 44.1944 14.1273 42.96C12.8929 41.7255 12.8929 39.724 14.1273 38.4896L32.8217 19.7951Z" fill="white"/>
<path d="M34.1768 35.3512C33.6802 36.4153 33.8711 37.7208 34.7494 38.5991L44.503 48.3527C45.6253 49.475 47.4448 49.475 48.567 48.3527C49.6893 47.2305 49.6893 45.411 48.567 44.2887L40.7994 36.5211L45.7916 31.5289C51.4028 25.9177 51.4028 16.8201 45.7916 11.2089C40.1804 5.59765 31.0837 5.59674 25.4725 11.208L18.5628 18.1177C17.4406 19.2399 17.4406 21.0594 18.5628 22.1817C19.685 23.3039 21.5046 23.3039 22.6268 22.1817L29.5365 15.272C32.9028 11.9057 38.3604 11.9057 41.7276 15.2729C45.0943 18.6396 45.0943 24.0981 41.7276 27.4649L34.8188 34.3737C34.531 34.6615 34.3169 34.9952 34.1768 35.3512Z" fill="white"/>
<path d="M14.922 30.1798C15.0368 30.0951 15.1468 30.0007 15.2508 29.8967C16.3731 28.7745 16.3731 26.955 15.2508 25.8327L5.49724 16.0791C4.375 14.9569 2.55549 14.9569 1.43325 16.0791C0.311004 17.2013 0.311004 19.0209 1.43325 20.1431L9.13196 27.8418L4.20841 32.7654C-1.4028 38.3766 -1.4028 47.4742 4.20841 53.0854C9.81962 58.6966 18.9163 58.6975 24.5275 53.0863L31.4372 46.1766C32.5594 45.0543 32.5594 43.2348 31.4372 42.1126C30.315 40.9903 28.4954 40.9903 27.3732 42.1126L20.4635 49.0223C17.0972 52.3885 11.6396 52.3886 8.27241 49.0214C4.90568 45.6546 4.90568 40.1961 8.27241 36.8294L14.922 30.1798Z" fill="white"/>
</svg>
