<svg width="240" height="242" viewBox="0 0 240 242" fill="none" xmlns="http://www.w3.org/2000/svg">
<path d="M157.544 61.4165C163.469 55.4911 173.076 55.4911 179.002 61.4165C184.927 67.3419 184.927 76.949 179.002 82.8744L89.2688 172.608C83.3433 178.533 73.7363 178.533 67.8109 172.608C61.8854 166.682 61.8854 157.075 67.8109 151.15L157.544 61.4165Z" fill="white"/>
<path d="M164.059 136.06C161.66 141.172 162.572 147.452 166.795 151.675L213.613 198.493C218.999 203.879 227.733 203.879 233.12 198.493C238.507 193.106 238.507 184.372 233.12 178.986L195.836 141.702L219.8 117.739C246.733 90.8047 246.733 47.1364 219.8 20.2025C192.866 -6.73127 149.202 -6.73564 122.268 20.1982L89.1015 53.3647C83.7147 58.7515 83.7147 67.4852 89.1015 72.8719C94.4882 78.2587 103.222 78.2587 108.609 72.8719L141.775 39.7054C157.933 23.5474 184.13 23.5472 200.292 39.7097C216.453 55.87 216.453 82.071 200.292 98.2313L167.13 131.394C165.756 132.768 164.732 134.361 164.059 136.06Z" fill="white"/>
<path d="M43.8337 100.04L20.2004 123.673C-6.73346 150.607 -6.73345 194.275 20.2004 221.209C47.1342 248.143 90.7982 248.147 117.732 221.214L150.899 188.047C156.285 182.66 156.285 173.927 150.899 168.54C145.512 163.153 136.778 163.153 131.391 168.54L98.2248 201.706C82.0668 217.864 55.8701 217.865 39.7076 201.702C23.5473 185.542 23.5473 159.341 39.7076 143.181L71.6246 111.263C72.1764 110.857 72.7048 110.403 73.2045 109.904C78.5912 104.517 78.5912 95.7832 73.2045 90.3965L26.3872 43.5792C21.0004 38.1924 12.2668 38.1924 6.88001 43.5792C1.49324 48.9659 1.49323 57.6996 6.88001 63.0864L43.8337 100.04Z" fill="white"/>
</svg>
